<svg width="100%" height="100%" viewBox="0 0 100 101" fill="none" xmlns="http://www.w3.org/2000/svg">
<path d="M61.4167 37.5421L59.975 75.0421M40.025 75.0421L38.5833 37.5421M80.1167 24.1671C81.5389 24.3838 82.9583 24.6144 84.375 24.8588M80.1167 24.1671L75.6667 82.013C75.485 84.3681 74.4211 86.5678 72.6876 88.1723C70.9541 89.7768 68.6788 90.6678 66.3167 90.6671H33.6833C31.3212 90.6678 29.0459 89.7768 27.3124 88.1723C25.5789 86.5678 24.515 84.3681 24.3333 82.013L19.8833 24.1671M80.1167 24.1671C75.3078 23.4397 70.4741 22.888 65.625 22.513M19.8833 24.1671C18.4611 24.381 17.0417 24.6102 15.625 24.8546M19.8833 24.1671C24.6922 23.4397 29.5259 22.888 34.375 22.513M65.625 22.513V18.6963C65.625 13.7796 61.8333 9.67963 56.9167 9.52547C52.3067 9.37823 47.6933 9.37823 43.0833 9.52547C38.1667 9.67963 34.375 13.7838 34.375 18.6963V22.513M65.625 22.513C55.2236 21.7146 44.7764 21.7146 34.375 22.513" stroke="currentColor" stroke-width="6.25" stroke-linecap="round" stroke-linejoin="round"/>
</svg>
