<svg width="100%" height="100%" viewBox="0 0 100 101" fill="none" xmlns="http://www.w3.org/2000/svg">
<g clip-path="url(#clip0_260_8815)">
<path d="M34.3545 74.1197C37.2464 77.8055 39.8787 81.6879 42.2321 85.7388C44.2414 89.5486 45.079 92.132 46.5474 96.7224C47.448 99.2587 48.2618 100.016 50.0117 100.016C51.9185 100.016 52.7836 98.7279 53.452 96.7363C54.8401 92.4012 55.9292 89.0927 57.6474 85.9666C61.0191 79.9311 65.2087 74.5679 69.3253 69.4134C70.4398 67.9546 77.6452 59.4557 80.8891 52.7497C80.8891 52.7497 84.876 45.3832 84.876 35.0952C84.876 25.4718 80.9441 18.7974 80.9441 18.7974L69.624 21.829L62.7493 39.9355L61.0485 42.4322L60.7084 42.8846L60.2561 43.4508L59.4621 44.3551L58.3275 45.4895L52.2057 50.4769L36.9005 59.314L34.3545 74.1197Z" fill="#34A853"/>
<path d="M18.5586 51.5112C22.294 60.0434 29.4973 67.5436 34.3709 74.1256L60.2567 43.4624C60.2567 43.4624 56.6098 48.2319 49.9946 48.2319C42.6259 48.2319 36.673 42.3477 36.673 34.9281C36.673 29.8401 39.7341 26.3447 39.7341 26.3447L22.1621 31.0532L18.5586 51.5112Z" fill="#FBBC04"/>
<path d="M60.548 1.6189C69.1453 4.39083 76.5039 10.2102 80.9548 18.7914L60.2668 43.4448C60.2668 43.4448 63.3278 39.8862 63.3278 34.8298C63.3278 27.2374 56.9346 21.5655 50.0281 21.5655C43.497 21.5655 39.7461 26.3271 39.7461 26.3271V10.7957L60.548 1.6189Z" fill="#4285F4"/>
<path d="M23.2988 12.512C28.4337 6.36842 37.4691 0.0419922 49.9258 0.0419922C55.9694 0.0419922 60.5225 1.62864 60.5225 1.62864L39.7225 26.3406H24.9855L23.2988 12.512Z" fill="#1A73E8"/>
<path d="M18.5615 51.5111C18.5615 51.5111 15.125 44.7814 15.125 35.0321C15.125 25.8177 18.707 17.7632 23.3035 12.512L39.7389 26.3428L18.5615 51.5111Z" fill="#EA4335"/>
</g>
<defs>
<clipPath id="clip0_260_8815">
<rect width="69.7917" height="100" fill="white" transform="translate(15.1045 0.0419922)"/>
</clipPath>
</defs>
</svg>
