<svg width="100%" height="100%" viewBox="0 0 100 101" fill="none" xmlns="http://www.w3.org/2000/svg">
<path d="M8.33203 25.0417C8.33203 23.9366 8.77102 22.8768 9.55242 22.0954C10.3338 21.314 11.3936 20.875 12.4987 20.875H87.4987C88.6038 20.875 89.6636 21.314 90.445 22.0954C91.2264 22.8768 91.6654 23.9366 91.6654 25.0417C91.6654 26.1467 91.2264 27.2065 90.445 27.9879C89.6636 28.7693 88.6038 29.2083 87.4987 29.2083H12.4987C11.3936 29.2083 10.3338 28.7693 9.55242 27.9879C8.77102 27.2065 8.33203 26.1467 8.33203 25.0417ZM8.33203 50.175C8.33203 49.0699 8.77102 48.0101 9.55242 47.2287C10.3338 46.4473 11.3936 46.0083 12.4987 46.0083H87.4987C88.6038 46.0083 89.6636 46.4473 90.445 47.2287C91.2264 48.0101 91.6654 49.0699 91.6654 50.175C91.6654 51.2801 91.2264 52.3399 90.445 53.1213C89.6636 53.9027 88.6038 54.3417 87.4987 54.3417H12.4987C11.3936 54.3417 10.3338 53.9027 9.55242 53.1213C8.77102 52.3399 8.33203 51.2801 8.33203 50.175ZM12.4987 71.1458C11.3936 71.1458 10.3338 71.5848 9.55242 72.3662C8.77102 73.1476 8.33203 74.2074 8.33203 75.3125C8.33203 76.4176 8.77102 77.4774 9.55242 78.2588C10.3338 79.0402 11.3936 79.4792 12.4987 79.4792H87.4987C88.6038 79.4792 89.6636 79.0402 90.445 78.2588C91.2264 77.4774 91.6654 76.4176 91.6654 75.3125C91.6654 74.2074 91.2264 73.1476 90.445 72.3662C89.6636 71.5848 88.6038 71.1458 87.4987 71.1458H12.4987Z" fill="currentColor"/>
</svg>
