<svg width="100%" height="100%" viewBox="0 0 100 101" fill="none" xmlns="http://www.w3.org/2000/svg">
<rect y="0.0418701" width="100" height="100" rx="16" fill="#6C5CE7"/>
<path d="M31.4974 80.4587L34.2904 74.1957C33.5004 73.575 32.7387 72.969 32.0052 72.3777C31.2717 71.7864 30.5664 71.1511 29.8893 70.4717C29.4379 70.641 29.0012 70.7685 28.5792 70.8543C28.1571 70.94 27.6911 70.9818 27.181 70.9795C25.319 70.9795 23.7256 70.3171 22.4008 68.9923C21.076 67.6675 20.4124 66.0729 20.4102 64.2087C20.4102 63.0802 20.6505 62.0499 21.1313 61.1178C21.612 60.1857 22.2744 59.4104 23.1185 58.792C22.6671 57.4943 22.3568 56.183 22.1875 54.8582C22.0182 53.5334 21.9336 52.1363 21.9336 50.667C21.9336 49.1978 22.0182 47.8018 22.1875 46.4793C22.3568 45.1567 22.6671 43.8443 23.1185 42.542C22.2721 41.9214 21.6097 41.1461 21.1313 40.2163C20.6528 39.2864 20.4124 38.2561 20.4102 37.1254C20.4102 35.2634 21.0737 33.67 22.4008 32.3452C23.7279 31.0203 25.3213 30.3568 27.181 30.3545C27.6888 30.3545 28.1549 30.3974 28.5792 30.4832C29.0035 30.5689 29.4402 30.6953 29.8893 30.8623C31.7513 28.8311 33.8819 27.1384 36.281 25.7842C38.6801 24.4301 41.2327 23.4144 43.9388 22.7373C44.2209 21.0446 44.9973 19.634 46.268 18.5056C47.5386 17.3771 49.0192 16.8129 50.7096 16.8129C52.4001 16.8129 53.8818 17.3918 55.1547 18.5496C56.4276 19.7074 57.2029 21.1033 57.4805 22.7373C60.1888 23.4144 62.7425 24.4165 65.1417 25.7436C67.5408 27.0707 69.6702 28.7205 71.5299 30.6931C71.9813 30.5238 72.4045 30.3974 72.7995 30.3139C73.1944 30.2304 73.6176 30.1875 74.069 30.1853C75.931 30.1853 77.5255 30.8488 78.8526 32.1759C80.1797 33.503 80.8421 35.0964 80.8398 36.9561C80.8398 38.0846 80.6141 39.0867 80.1628 39.9623C79.7114 40.838 79.0907 41.5851 78.3008 42.2035C78.7522 43.5577 79.0625 44.94 79.2318 46.3506C79.401 47.7612 79.4857 49.2 79.4857 50.667C79.4857 52.134 79.401 53.5593 79.2318 54.9428C79.0625 56.3263 78.7522 57.6658 78.3008 58.9613C79.0907 59.582 79.7114 60.3301 80.1628 61.2058C80.6141 62.0815 80.8398 63.0825 80.8398 64.2087C80.8398 66.0707 80.1774 67.6641 78.8526 68.9889C77.5278 70.3137 75.9332 70.9773 74.069 70.9795C73.6176 70.9795 73.1944 70.9367 72.7995 70.8509C72.4045 70.7651 71.9813 70.6387 71.5299 70.4717C70.8529 71.1488 70.1622 71.8112 69.4581 72.459C68.7539 73.1067 67.9775 73.742 67.1289 74.365L69.7526 80.5433C70.204 81.5025 70.134 82.4053 69.5427 83.2517C68.9514 84.098 68.1468 84.5212 67.1289 84.5212C66.5082 84.5212 65.9722 84.3519 65.5208 84.0134C65.0694 83.6748 64.7309 83.2517 64.5052 82.7439L62.0508 77.0733C61.2609 77.4118 60.4991 77.7086 59.7656 77.9636C59.0321 78.2187 58.2704 78.4297 57.4805 78.5967C57.1984 80.233 56.422 81.6301 55.1513 82.7879C53.8806 83.9457 52.4001 84.5235 50.7096 84.5212C49.0192 84.5189 47.5386 83.9547 46.268 82.8285C44.9973 81.7023 44.2209 80.2917 43.9388 78.5967C43.0924 78.4275 42.289 78.2164 41.5284 77.9636C40.7678 77.7109 39.9914 77.4141 39.1992 77.0733L36.7448 82.8285C36.5191 83.3363 36.167 83.7459 35.6885 84.0574C35.2101 84.3689 34.6876 84.5235 34.1211 84.5212C33.1055 84.5212 32.302 84.0845 31.7107 83.211C31.1194 82.3376 31.0483 81.4202 31.4974 80.4587ZM36.1523 69.7946L41.3997 57.9457C40.6098 56.9301 39.9892 55.8016 39.5378 54.5603C39.0864 53.3189 38.8607 52.0212 38.8607 50.667C38.8607 47.4509 40.032 44.6715 42.3747 42.3288C44.7174 39.986 47.4957 38.8158 50.7096 38.8181C53.9235 38.8203 56.703 39.9917 59.0479 42.3321C61.3929 44.6726 62.5631 47.4509 62.5586 50.667C62.5586 52.0212 62.3182 53.3472 61.8375 54.6449C61.3568 55.9426 60.6944 57.0993 59.8503 58.1149L65.0977 69.7946C65.6055 69.3432 66.0997 68.9347 66.5805 68.5691C67.0612 68.2035 67.5261 67.7656 67.9753 67.2556C67.6931 66.8042 67.5103 66.311 67.4268 65.7761C67.3433 65.2413 67.3004 64.7188 67.2982 64.2087C67.2982 62.4031 67.9188 60.8515 69.1602 59.5538C70.4015 58.256 71.9249 57.5507 73.7305 57.4379C74.069 56.3094 74.3229 55.1956 74.4922 54.0965C74.6615 52.9973 74.7461 51.8542 74.7461 50.667C74.7461 49.4799 74.6615 48.3097 74.4922 47.1564C74.3229 46.0031 74.069 44.8599 73.7305 43.7269C71.9249 43.6141 70.4015 42.9088 69.1602 41.611C67.9188 40.3133 67.2982 38.7617 67.2982 36.9561C67.2982 36.4483 67.3693 35.9551 67.5115 35.4767C67.6537 34.9982 67.8082 34.5321 67.9753 34.0785C66.339 32.4422 64.5334 31.0598 62.5586 29.9314C60.5838 28.8029 58.4961 27.9283 56.2956 27.3077C55.6749 28.2669 54.885 29.015 53.9258 29.5522C52.9666 30.0893 51.8945 30.3568 50.7096 30.3545C49.5247 30.3523 48.4527 30.0837 47.4935 29.5488C46.5343 29.0139 45.7444 28.2669 45.1237 27.3077C42.8103 27.9283 40.6662 28.8176 38.6914 29.9754C36.7166 31.1332 34.911 32.5573 33.2747 34.2478C33.444 34.6992 33.5997 35.1652 33.7419 35.6459C33.8841 36.1267 33.9541 36.6198 33.9518 37.1254C33.9518 38.9309 33.3594 40.469 32.1745 41.7397C30.9896 43.0103 29.4944 43.7292 27.6888 43.8962C27.3503 45.0247 27.0964 46.1396 26.9271 47.241C26.7578 48.3424 26.6732 49.4844 26.6732 50.667C26.6732 51.8497 26.7578 52.9928 26.9271 54.0965C27.0964 55.2001 27.3503 56.3139 27.6888 57.4379C29.4944 57.5507 30.9896 58.256 32.1745 59.5538C33.3594 60.8515 33.9518 62.4031 33.9518 64.2087C33.9518 64.7165 33.9101 65.2108 33.8266 65.6915C33.7431 66.1722 33.5591 66.6372 33.2747 67.0863C33.7261 67.5941 34.1922 68.0602 34.6729 68.4845C35.1536 68.9088 35.6468 69.3455 36.1523 69.7946ZM41.2305 72.6722C41.8511 72.9544 42.4865 73.2083 43.1365 73.434C43.7865 73.6597 44.4489 73.8571 45.1237 74.0264C45.7444 73.0672 46.5343 72.3202 47.4935 71.7853C48.4527 71.2504 49.5247 70.9818 50.7096 70.9795C51.8945 70.9773 52.9666 71.2459 53.9258 71.7853C54.885 72.3247 55.6749 73.0717 56.2956 74.0264C56.9727 73.8571 57.6069 73.6597 58.1982 73.434C58.7895 73.2083 59.3966 72.9544 60.0195 72.6722L55.1107 61.6696C54.4336 61.9518 53.7283 62.1639 52.9948 62.3061C52.2613 62.4483 51.4996 62.5182 50.7096 62.516C49.8633 62.516 49.0587 62.4314 48.2958 62.2621C47.533 62.0928 46.8142 61.8389 46.1393 61.5004L41.2305 72.6722Z" fill="white"/>
</svg>
