<svg width="100%" height="100%" viewBox="0 0 100 101" fill="none" xmlns="http://www.w3.org/2000/svg">
<rect x="2.5" y="2.54187" width="95" height="95" rx="13.5" fill="white"/>
<rect x="2.5" y="2.54187" width="95" height="95" rx="13.5" stroke="#6C5CE7" stroke-width="5"/>
<path d="M68.416 26.3333C70.0515 26.3333 71.62 26.983 72.7765 28.1394C73.933 29.2959 74.5827 30.8644 74.5827 32.4999V38.7745C77.2871 39.1598 79.7447 40.5564 81.4599 42.6826C83.175 44.8088 84.02 47.5063 83.8244 50.231C83.6288 52.9557 82.4072 55.5048 80.4059 57.3642C78.4047 59.2236 75.7727 60.2548 73.041 60.2499H70.6113C68.1771 64.1429 64.7672 67.3317 60.72 69.4999H68.416C69.2338 69.4999 70.018 69.8248 70.5963 70.403C71.1745 70.9812 71.4993 71.7655 71.4993 72.5833C71.4993 73.401 71.1745 74.1853 70.5963 74.7635C70.018 75.3417 69.2338 75.6666 68.416 75.6666H28.3327C27.5149 75.6666 26.7307 75.3417 26.1524 74.7635C25.5742 74.1853 25.2493 73.401 25.2493 72.5833C25.2493 71.7655 25.5742 70.9812 26.1524 70.403C26.7307 69.8248 27.5149 69.4999 28.3327 69.4999H36.0287C31.8397 67.2629 28.3373 63.9298 25.8956 59.8568C23.4539 55.7837 22.1648 51.1238 22.166 46.3749V32.4999C22.166 30.8644 22.8157 29.2959 23.9722 28.1394C25.1287 26.983 26.6972 26.3333 28.3327 26.3333H68.416ZM74.5827 45.0953V46.3749C74.5827 49.0513 74.1818 51.6351 73.4357 54.0678C74.4524 53.9816 75.412 53.5615 76.1651 52.8731C76.9183 52.1846 77.4226 51.2665 77.5996 50.2616C77.7765 49.2567 77.6162 48.2215 77.1436 47.3172C76.671 46.4129 75.9127 45.6903 74.9866 45.2618L74.5827 45.0953Z" fill="#6C5CE7"/>
</svg>
