<svg width="100%" height="100%" viewBox="0 0 100 101" fill="none" xmlns="http://www.w3.org/2000/svg">
<rect y="0.0419922" width="100" height="100" rx="16" fill="#6C5CE7"/>
<path d="M45.7542 31.5633H53.7458V23.5716H45.7542V31.5633ZM49.75 51.1961C45.8344 51.1961 42.0476 50.5192 38.3896 49.1653C34.7365 47.8115 31.2316 46.0907 27.875 44.0028V37.4513C27.875 35.8325 28.451 34.4471 29.6031 33.295C30.7552 32.143 32.1431 31.5657 33.7667 31.5633H42.1083V22.7294C42.1083 21.9759 42.3878 21.3197 42.9469 20.7607C43.5059 20.2016 44.1609 19.9221 44.912 19.9221H54.588C55.3415 19.9221 55.9977 20.2016 56.5568 20.7607C57.1158 21.3197 57.3953 21.9759 57.3953 22.7294V31.5633H65.737C67.3557 31.5633 68.7411 32.1405 69.8932 33.295C71.0453 34.4495 71.6226 35.835 71.625 37.4513V44.0028C68.2708 46.0931 64.766 47.814 61.1104 49.1653C57.4549 50.5192 53.6681 51.1961 49.75 51.1961ZM33.7667 80.782V78.9591C32.1455 78.9591 30.7589 78.3818 29.6068 77.2273C28.4547 76.0728 27.8774 74.6886 27.875 73.0747V48.2831C30.9983 50.0671 34.2273 51.5376 37.562 52.6945C40.8967 53.8466 44.3517 54.549 47.9271 54.8018V56.6648C47.9271 57.1825 48.1021 57.6164 48.4521 57.9664C48.8021 58.3164 49.2359 58.4902 49.7536 58.4877C50.2714 58.4853 50.704 58.3115 51.0516 57.9664C51.3991 57.6212 51.5729 57.1874 51.5729 56.6648V54.8018C55.1483 54.549 58.6033 53.8454 61.938 52.6909C65.2752 51.5364 68.5042 50.0659 71.625 48.2794V73.0711C71.625 74.6923 71.0477 76.0789 69.8932 77.231C68.7387 78.383 67.3533 78.9603 65.737 78.9627V80.7857C65.737 81.3034 65.5595 81.736 65.2047 82.0836C64.8498 82.4311 64.4123 82.6061 63.8922 82.6086C63.4012 82.6086 63.0172 82.4141 62.7401 82.0252C62.4606 81.6339 62.2431 81.2207 62.0875 80.7857V78.9591H37.4125V80.782C37.4125 81.2997 37.2351 81.7324 36.8802 82.0799C36.5278 82.4299 36.0903 82.6049 35.5677 82.6049C35.0767 82.6049 34.6915 82.4105 34.412 82.0216C34.1349 81.6303 33.9198 81.2171 33.7667 80.782Z" fill="white"/>
</svg>
