<svg width="100%" height="100%" viewBox="0 0 100 101" fill="none" xmlns="http://www.w3.org/2000/svg">
<rect x="2.5" y="2.54199" width="95" height="95" rx="13.5" fill="white"/>
<rect x="2.5" y="2.54199" width="95" height="95" rx="13.5" stroke="#6C5CE7" stroke-width="5"/>
<path d="M28.639 18.3127C28.1201 18.3119 27.6181 18.4977 27.2247 18.8361C26.8313 19.1746 26.5727 19.6431 26.4959 20.1564C26.2765 21.6426 24.541 33.4662 24.541 38.693C24.541 42.1356 26.0241 45.2366 28.3788 47.3843C29.4683 48.3767 30.028 49.38 30.028 50.272C30.028 50.3426 30.0264 50.4006 30.0202 50.4633C29.8728 52.3038 28.4603 70.0095 28.4603 73.1825C28.4603 75.2614 29.2861 77.2552 30.7561 78.7252C32.2262 80.1952 34.2199 81.0211 36.2988 81.0211C38.3777 81.0211 40.3715 80.1952 41.8415 78.7252C43.3115 77.2552 44.1374 75.2614 44.1374 73.1825C44.1374 70.0095 42.7249 52.3038 42.5775 50.4633L42.5697 50.272C42.5697 49.38 43.1293 48.3767 44.2189 47.3843C45.4296 46.2836 46.3965 44.9416 47.0574 43.4447C47.7184 41.9479 48.0587 40.3292 48.0566 38.693C48.0566 33.4662 46.3212 21.6363 46.1017 20.1564C46.025 19.6434 45.7666 19.175 45.3735 18.8366C44.9805 18.4982 44.4789 18.3123 43.9602 18.3127H43.932C42.6841 18.3127 41.7889 19.3396 41.7889 20.4605V36.9371C41.7889 37.1677 41.7435 37.396 41.6553 37.609C41.567 37.8221 41.4377 38.0156 41.2747 38.1787C41.1116 38.3417 40.9181 38.4711 40.705 38.5593C40.492 38.6475 40.2637 38.693 40.0331 38.693C39.8025 38.693 39.5742 38.6475 39.3612 38.5593C39.1482 38.4711 38.9546 38.3417 38.7915 38.1787C38.6285 38.0156 38.4992 37.8221 38.4109 37.609C38.3227 37.396 38.2773 37.1677 38.2773 36.9371V20.3806C38.286 20.1119 38.2399 19.8443 38.1418 19.5941C38.0437 19.3438 37.8957 19.1162 37.7068 18.925C37.5179 18.7338 37.2921 18.5831 37.043 18.482C36.794 18.3809 36.527 18.3315 36.2583 18.337C35.9895 18.3424 35.7247 18.4025 35.48 18.5136C35.2352 18.6247 35.0157 18.7844 34.8347 18.9831C34.6536 19.1818 34.515 19.4152 34.4271 19.6692C34.3392 19.9232 34.304 20.1924 34.3235 20.4605V36.9371C34.3235 37.4028 34.1385 37.8494 33.8092 38.1787C33.48 38.508 33.0334 38.693 32.5677 38.693C32.102 38.693 31.6554 38.508 31.3261 38.1787C30.9968 37.8494 30.8118 37.4028 30.8118 36.9371V20.4605C30.8119 19.8917 30.5862 19.3461 30.1844 18.9435C29.7827 18.5408 29.2376 18.314 28.6688 18.3127H28.639ZM60.4572 49.6669L60.3584 51.0967C60.2111 53.2319 60.0136 56.1133 59.8192 59.0982C59.4304 65.0148 59.0306 71.4753 59.0306 73.1825C59.0306 75.2614 59.8564 77.2552 61.3265 78.7252C62.7965 80.1952 64.7902 81.0211 66.8691 81.0211C68.9481 81.0211 70.9418 80.1952 72.4118 78.7252C73.8818 77.2552 74.7077 75.2614 74.7077 73.1825C74.7077 71.2872 74.2139 64.0992 73.7859 57.8942L73.7718 57.6904C73.43 52.7177 73.14 48.4755 73.14 47.7073V20.2724C73.14 19.1907 72.2621 18.3127 71.1803 18.3127H70.3965C60.6563 18.3127 52.7598 26.2093 52.7598 35.9495V44.5719C52.7598 45.9232 53.2966 47.2191 54.2521 48.1746C55.2076 49.1301 56.5035 49.6669 57.8548 49.6669H60.4572Z" fill="#6C5CE7"/>
</svg>
