<svg width="100%" height="100%" viewBox="0 0 106 141" fill="none" xmlns="http://www.w3.org/2000/svg">
<path d="M52.248 128.027L50.6875 129.438C51.0861 129.879 51.6533 130.131 52.248 130.131C52.8428 130.131 53.4099 129.879 53.8086 129.438L52.248 128.027ZM52.248 128.027L53.8096 129.437C53.8099 129.436 53.8108 129.435 53.8115 129.435C53.813 129.433 53.8147 129.43 53.8174 129.427C53.8229 129.421 53.8314 129.412 53.8418 129.401C53.8627 129.377 53.8936 129.343 53.9336 129.298C54.0135 129.209 54.1309 129.077 54.2832 128.904C54.588 128.559 55.0328 128.051 55.5977 127.396C56.7274 126.084 58.3386 124.18 60.2695 121.801C64.1295 117.045 69.2794 110.378 74.4336 102.738C79.5839 95.1049 84.7648 86.4626 88.6641 77.7589C92.551 69.0827 95.2354 60.1901 95.2354 52.0988C95.2353 40.6978 90.7062 29.764 82.6445 21.7023C74.5828 13.6406 63.649 9.11145 52.248 9.11145C40.8471 9.11148 29.9133 13.6406 21.8516 21.7023C13.7899 29.764 9.26077 40.6978 9.26074 52.0988C9.26074 60.1901 11.9461 69.0827 15.833 77.7589C19.7323 86.4625 24.9123 95.105 30.0625 102.738C35.2168 110.378 40.3675 117.045 44.2275 121.801C46.1585 124.18 47.7687 126.084 48.8984 127.396C49.4633 128.051 49.908 128.559 50.2129 128.904C50.3651 129.077 50.4826 129.209 50.5625 129.298C50.6025 129.343 50.6334 129.377 50.6543 129.401C50.6647 129.412 50.6732 129.421 50.6787 129.427C50.6815 129.43 50.683 129.433 50.6846 129.435C50.6853 129.436 50.6861 129.436 50.6865 129.437L52.248 128.027Z" fill="#6C5CE7" stroke="#6C5CE7" stroke-width="4.2053" stroke-linejoin="round"/>
<path d="M47.0229 81.9341L40.1885 69.2319L27.4863 62.3976L32.3877 57.5653L42.3976 59.2911L49.439 52.2497L27.5554 42.9301L33.3542 36.9932L59.9322 41.6875L68.4923 33.1273C69.5509 32.0688 70.8625 31.5396 72.4273 31.5396C73.992 31.5396 75.3037 32.0688 76.3622 33.1273C77.4207 34.1858 77.95 35.4855 77.95 37.0263C77.95 38.5672 77.4207 39.8678 76.3622 40.9281L67.733 49.5573L72.4273 76.0663L66.5594 81.9341L57.1708 60.0505L50.1294 67.0919L51.9243 77.0328L47.0229 81.9341Z" fill="white"/>
</svg>
