<svg width="100%" height="100%" viewBox="0 0 68 101" fill="none" xmlns="http://www.w3.org/2000/svg">
<path fill-rule="evenodd" clip-rule="evenodd" d="M52.9048 44.8441C54.2703 46.2113 55.0373 48.0646 55.0373 49.9969C55.0373 51.9292 54.2703 53.7824 52.9048 55.1496L25.4104 82.6538C24.0425 84.0211 22.1875 84.7889 20.2535 84.7885C18.3194 84.788 16.4648 84.0193 15.0975 82.6514C13.7303 81.2835 12.9624 79.4285 12.9629 77.4945C12.9633 75.5604 13.7321 73.7058 15.1 72.3385L37.4416 49.9969L15.1 27.6552C13.7711 26.2806 13.0352 24.439 13.0509 22.5272C13.0666 20.6153 13.8326 18.7861 15.1839 17.4335C16.5352 16.0809 18.3637 15.3132 20.2756 15.2957C22.1874 15.2782 24.0297 16.0123 25.4055 17.3399L52.9097 44.8392L52.9048 44.8441Z" fill="currentColor"/>
</svg>
