<svg width="100%" height="100%" viewBox="0 0 100 101" fill="none" xmlns="http://www.w3.org/2000/svg">
<path d="M75.1279 69.2792L92.9737 87.1208L87.0779 93.0167L69.2362 75.1708C62.5976 80.4926 54.3404 83.3871 45.832 83.375C25.132 83.375 8.33203 66.575 8.33203 45.875C8.33203 25.175 25.132 8.375 45.832 8.375C66.532 8.375 83.332 25.175 83.332 45.875C83.3441 54.3833 80.4496 62.6406 75.1279 69.2792ZM66.7695 66.1875C72.0564 60.7488 75.0093 53.4599 74.9987 45.875C74.9987 29.7625 61.9445 16.7083 45.832 16.7083C29.7195 16.7083 16.6654 29.7625 16.6654 45.875C16.6654 61.9875 29.7195 75.0417 45.832 75.0417C53.4169 75.0523 60.7058 72.0993 66.1445 66.8125L66.7695 66.1875Z" fill="currentColor"/>
</svg>
