<svg width="100%" height="100%" viewBox="0 0 100 101" fill="none" xmlns="http://www.w3.org/2000/svg">
<g clip-path="url(#clip0_313_5761)">
<path fill-rule="evenodd" clip-rule="evenodd" d="M12.183 2.13668C10.8358 0.835547 9.03151 0.115587 7.15868 0.131862C5.28585 0.148136 3.49433 0.899343 2.16998 2.22369C0.84564 3.54803 0.0944337 5.33955 0.0781592 7.21238C0.0618848 9.08522 0.781845 10.8895 2.08297 12.2367L39.8901 50.0438L2.08297 87.851C1.40076 88.5099 0.8566 89.2981 0.48225 90.1695C0.1079 91.041 -0.089145 91.9783 -0.0973866 92.9267C-0.105628 93.8751 0.0750984 94.8157 0.434248 95.6935C0.793397 96.5713 1.32378 97.3688 1.99444 98.0395C2.6651 98.7102 3.46261 99.2405 4.34045 99.5997C5.21828 99.9588 6.15884 100.14 7.10727 100.131C8.05569 100.123 8.99298 99.926 9.86443 99.5517C10.7359 99.1773 11.5241 98.6332 12.183 97.951L49.9901 60.1438L87.7973 97.951C89.1444 99.2521 90.9487 99.9721 92.8215 99.9558C94.6944 99.9395 96.4859 99.1883 97.8102 97.864C99.1346 96.5396 99.8858 94.7481 99.9021 92.8753C99.9183 91.0024 99.1984 89.1981 97.8973 87.851L60.0901 50.0438L97.8973 12.2367C99.1984 10.8895 99.9183 9.08522 99.9021 7.21238C99.8858 5.33955 99.1346 3.54803 97.8102 2.22369C96.4859 0.899343 94.6944 0.148136 92.8215 0.131862C90.9487 0.115587 89.1444 0.835547 87.7973 2.13668L49.9901 39.9438L12.183 2.13668Z" fill="currentColor"/>
</g>
<defs>
<clipPath id="clip0_313_5761">
<rect width="100" height="100" fill="white" transform="translate(0 0.0419922)"/>
</clipPath>
</defs>
</svg>
