<svg width="100%" height="100%" viewBox="0 0 75 100" fill="none" xmlns="http://www.w3.org/2000/svg">
<path d="M37.167 91.3345L36.0537 92.3403C36.3381 92.6551 36.7428 92.8345 37.167 92.8345C37.5912 92.8344 37.9959 92.6551 38.2803 92.3403L37.167 91.3345ZM37.167 91.3345L38.2803 92.3394L38.2822 92.3384C38.2833 92.3372 38.2841 92.3347 38.2861 92.3325C38.2901 92.3281 38.2963 92.3222 38.3037 92.314C38.3186 92.2974 38.3406 92.2726 38.3691 92.2407C38.4262 92.1769 38.5095 92.0824 38.6182 91.9595C38.8356 91.7133 39.1537 91.351 39.5566 90.8833C40.3625 89.9479 41.5114 88.5901 42.8887 86.8931C45.6424 83.5001 49.3161 78.7433 52.9932 73.2935C56.6673 67.8478 60.3628 61.6823 63.1445 55.4731C65.9173 49.2838 67.8329 42.9406 67.833 37.1685C67.833 29.0353 64.6025 21.235 58.8516 15.4839C53.1005 9.73285 45.3002 6.50155 37.167 6.50146C29.0337 6.50146 21.2335 9.73277 15.4824 15.4839C9.73131 21.235 6.5 29.0352 6.5 37.1685C6.50007 42.9406 8.41571 49.2839 11.1885 55.4731C13.9701 61.6822 17.6657 67.8479 21.3398 73.2935C25.0169 78.7433 28.6906 83.5001 31.4443 86.8931C32.8218 88.5903 33.9714 89.9478 34.7773 90.8833C35.1802 91.3509 35.4974 91.7133 35.7148 91.9595C35.8236 92.0826 35.9078 92.1769 35.9648 92.2407C35.9933 92.2725 36.0144 92.2974 36.0293 92.314C36.0367 92.3222 36.0429 92.3281 36.0469 92.3325C36.0489 92.3347 36.0506 92.3372 36.0518 92.3384L36.0527 92.3394L37.167 91.3345Z" fill="white" stroke="#6C5CE7" stroke-width="3" stroke-linejoin="round"/>
<path d="M27.7487 55.2099L29.1452 52.0784C28.7502 51.768 28.3694 51.465 28.0026 51.1694C27.6359 50.8737 27.2832 50.5561 26.9447 50.2164C26.719 50.301 26.5006 50.3648 26.2896 50.4077C26.0786 50.4505 25.8455 50.4714 25.5905 50.4703C24.6595 50.4703 23.8628 50.1391 23.2004 49.4767C22.538 48.8143 22.2062 48.017 22.2051 47.0849C22.2051 46.5206 22.3253 46.0055 22.5656 45.5394C22.806 45.0734 23.1372 44.6857 23.5592 44.3765C23.3336 43.7277 23.1784 43.072 23.0937 42.4096C23.0091 41.7472 22.9668 41.0487 22.9668 40.314C22.9668 39.5794 23.0091 38.8815 23.0937 38.2202C23.1784 37.5589 23.3336 36.9027 23.5592 36.2515C23.1361 35.9412 22.8049 35.5536 22.5656 35.0887C22.3264 34.6237 22.2062 34.1086 22.2051 33.5432C22.2051 32.6122 22.5368 31.8155 23.2004 31.1531C23.8639 30.4907 24.6606 30.1589 25.5905 30.1578C25.8444 30.1578 26.0774 30.1792 26.2896 30.2221C26.5017 30.265 26.7201 30.3282 26.9447 30.4117C27.8757 29.3961 28.9409 28.5497 30.1405 27.8726C31.3401 27.1956 32.6164 26.6877 33.9694 26.3492C34.1105 25.5028 34.4987 24.7976 35.134 24.2333C35.7693 23.6691 36.5096 23.387 37.3548 23.387C38.2 23.387 38.9409 23.6764 39.5773 24.2553C40.2138 24.8342 40.6014 25.5322 40.7402 26.3492C42.0944 26.6877 43.3713 27.1888 44.5708 27.8523C45.7704 28.5159 46.8351 29.3408 47.765 30.3271C47.9907 30.2424 48.2023 30.1792 48.3997 30.1375C48.5972 30.0957 48.8088 30.0743 49.0345 30.0732C49.9655 30.0732 50.7628 30.4049 51.4263 31.0685C52.0898 31.732 52.421 32.5287 52.4199 33.4586C52.4199 34.0228 52.3071 34.5239 52.0814 34.9617C51.8557 35.3996 51.5454 35.7731 51.1504 36.0823C51.3761 36.7594 51.5313 37.4505 51.6159 38.1558C51.7005 38.8611 51.7428 39.5805 51.7428 40.314C51.7428 41.0476 51.7005 41.7602 51.6159 42.4519C51.5313 43.1437 51.3761 43.8134 51.1504 44.4612C51.5454 44.7715 51.8557 45.1456 52.0814 45.5834C52.3071 46.0213 52.4199 46.5218 52.4199 47.0849C52.4199 48.0159 52.0887 48.8126 51.4263 49.475C50.7639 50.1374 49.9666 50.4692 49.0345 50.4703C48.8088 50.4703 48.5972 50.4489 48.3997 50.406C48.2023 50.3631 47.9907 50.2999 47.765 50.2164C47.4264 50.5549 47.0811 50.8861 46.729 51.21C46.377 51.5339 45.9888 51.8515 45.5645 52.163L46.8763 55.2522C47.102 55.7318 47.067 56.1832 46.7714 56.6064C46.4757 57.0295 46.0734 57.2411 45.5645 57.2411C45.2541 57.2411 44.9861 57.1565 44.7604 56.9872C44.5347 56.818 44.3655 56.6064 44.2526 56.3525L43.0254 53.5172C42.6304 53.6864 42.2496 53.8348 41.8828 53.9624C41.5161 54.0899 41.1352 54.1954 40.7402 54.2789C40.5992 55.097 40.211 55.7956 39.5757 56.3745C38.9403 56.9534 38.2 57.2423 37.3548 57.2411C36.5096 57.24 35.7693 56.9579 35.134 56.3948C34.4987 55.8317 34.1105 55.1264 33.9694 54.2789C33.5462 54.1943 33.1445 54.0887 32.7642 53.9624C32.3839 53.836 31.9957 53.6876 31.5996 53.5172L30.3724 56.3948C30.2595 56.6487 30.0835 56.8535 29.8443 57.0092C29.605 57.165 29.3438 57.2423 29.0605 57.2411C28.5527 57.2411 28.151 57.0228 27.8553 56.5861C27.5597 56.1493 27.5241 55.6906 27.7487 55.2099ZM30.0762 49.8778L32.6999 43.9534C32.3049 43.4456 31.9946 42.8813 31.7689 42.2607C31.5432 41.64 31.4303 40.9911 31.4303 40.314C31.4303 38.706 32.016 37.3163 33.1874 36.1449C34.3587 34.9736 35.7479 34.3884 37.3548 34.3896C38.9618 34.3907 40.3515 34.9764 41.524 36.1466C42.6964 37.3168 43.2816 38.706 43.2793 40.314C43.2793 40.9911 43.1591 41.6541 42.9188 42.303C42.6784 42.9519 42.3472 43.5302 41.9251 44.038L44.5488 49.8778C44.8027 49.6522 45.0499 49.4479 45.2902 49.2651C45.5306 49.0823 45.7631 48.8634 45.9876 48.6083C45.8466 48.3826 45.7552 48.1361 45.7134 47.8686C45.6717 47.6012 45.6502 47.3399 45.6491 47.0849C45.6491 46.1821 45.9594 45.4063 46.5801 44.7574C47.2007 44.1085 47.9625 43.7559 48.8652 43.6995C49.0345 43.1352 49.1615 42.5783 49.2461 42.0288C49.3307 41.4792 49.373 40.9076 49.373 40.314C49.373 39.7205 49.3307 39.1354 49.2461 38.5587C49.1615 37.9821 49.0345 37.4105 48.8652 36.844C47.9625 36.7876 47.2007 36.4349 46.5801 35.7861C45.9594 35.1372 45.6491 34.3614 45.6491 33.4586C45.6491 33.2047 45.6846 32.9581 45.7557 32.7189C45.8268 32.4796 45.9041 32.2466 45.9876 32.0198C45.1695 31.2016 44.2667 30.5104 43.2793 29.9462C42.2919 29.382 41.248 28.9447 40.1478 28.6344C39.8375 29.114 39.4425 29.488 38.9629 29.7566C38.4833 30.0252 37.9473 30.1589 37.3548 30.1578C36.7624 30.1567 36.2263 30.0224 35.7467 29.7549C35.2671 29.4875 34.8722 29.114 34.5618 28.6344C33.4052 28.9447 32.3331 29.3893 31.3457 29.9682C30.3583 30.5471 29.4555 31.2592 28.6374 32.1044C28.722 32.3301 28.7999 32.5631 28.871 32.8035C28.9421 33.0439 28.977 33.2904 28.9759 33.5432C28.9759 34.446 28.6797 35.215 28.0872 35.8504C27.4948 36.4857 26.7472 36.8451 25.8444 36.9286C25.6751 37.4929 25.5482 38.0503 25.4635 38.601C25.3789 39.1517 25.3366 39.7227 25.3366 40.314C25.3366 40.9054 25.3789 41.4769 25.4635 42.0288C25.5482 42.5806 25.6751 43.1375 25.8444 43.6995C26.7472 43.7559 27.4948 44.1085 28.0872 44.7574C28.6797 45.4063 28.9759 46.1821 28.9759 47.0849C28.9759 47.3388 28.955 47.5859 28.9133 47.8263C28.8715 48.0667 28.7796 48.2991 28.6374 48.5237C28.8631 48.7776 29.0961 49.0106 29.3365 49.2228C29.5768 49.4349 29.8234 49.6533 30.0762 49.8778ZM32.6152 51.3167C32.9256 51.4577 33.2432 51.5847 33.5682 51.6975C33.8932 51.8104 34.2244 51.9091 34.5618 51.9937C34.8722 51.5141 35.2671 51.1406 35.7467 50.8732C36.2263 50.6057 36.7624 50.4714 37.3548 50.4703C37.9473 50.4692 38.4833 50.6035 38.9629 50.8732C39.4425 51.1429 39.8375 51.5164 40.1478 51.9937C40.4863 51.9091 40.8034 51.8104 41.0991 51.6975C41.3947 51.5847 41.6983 51.4577 42.0098 51.3167L39.5553 45.8153C39.2168 45.9564 38.8641 46.0625 38.4974 46.1336C38.1306 46.2047 37.7498 46.2397 37.3548 46.2385C36.9316 46.2385 36.5293 46.1962 36.1479 46.1116C35.7665 46.0269 35.4071 45.9 35.0697 45.7307L32.6152 51.3167Z" fill="#6C5CE7"/>
</svg>
