<svg width="100%" height="100%" viewBox="0 0 75 100" fill="none" xmlns="http://www.w3.org/2000/svg">
<path d="M37.167 91.3335L36.0537 92.3394C36.3381 92.6541 36.7428 92.8335 37.167 92.8335C37.5912 92.8334 37.9959 92.6541 38.2803 92.3394L37.167 91.3335ZM37.167 91.3335L38.2803 92.3384L38.2822 92.3374C38.2833 92.3362 38.2841 92.3337 38.2861 92.3315C38.2901 92.3271 38.2963 92.3212 38.3037 92.313C38.3186 92.2964 38.3406 92.2717 38.3691 92.2397C38.4262 92.1759 38.5095 92.0815 38.6182 91.9585C38.8356 91.7123 39.1537 91.3501 39.5566 90.8823C40.3625 89.9469 41.5114 88.5891 42.8887 86.8921C45.6424 83.4991 49.3161 78.7423 52.9932 73.2925C56.6673 67.8469 60.3628 61.6813 63.1445 55.4722C65.9173 49.2829 67.8329 42.9396 67.833 37.1675C67.833 29.2883 64.801 21.7217 59.3828 16.0278L58.8516 15.4829C53.1005 9.73187 45.3002 6.50057 37.167 6.50049C29.2879 6.50049 21.7212 9.53263 16.0273 14.9507L15.4824 15.4829C9.73131 21.234 6.5 29.0342 6.5 37.1675C6.50007 42.9396 8.41571 49.2829 11.1885 55.4722C13.9701 61.6813 17.6657 67.8469 21.3398 73.2925C25.0169 78.7424 28.6906 83.4991 31.4443 86.8921C32.8218 88.5894 33.9714 89.9469 34.7773 90.8823C35.1802 91.35 35.4974 91.7123 35.7148 91.9585C35.8236 92.0816 35.9078 92.1759 35.9648 92.2397C35.9933 92.2716 36.0144 92.2964 36.0293 92.313C36.0367 92.3212 36.0429 92.3271 36.0469 92.3315C36.0489 92.3338 36.0506 92.3362 36.0518 92.3374L36.0527 92.3384L37.167 91.3335Z" fill="white" stroke="#6C5CE7" stroke-width="3" stroke-linejoin="round"/>
<path d="M46.5 28.0005C47.2956 28.0005 48.0587 28.3166 48.6213 28.8792C49.1839 29.4418 49.5 30.2048 49.5 31.0005V34.053C50.8157 34.2404 52.0113 34.9199 52.8457 35.9542C53.6801 36.9886 54.0911 38.3009 53.996 39.6264C53.9008 40.9519 53.3065 42.1921 52.3329 43.0966C51.3593 44.0012 50.0789 44.5029 48.75 44.5005H47.568C46.3838 46.3944 44.7249 47.9457 42.756 49.0005H46.5C46.8978 49.0005 47.2794 49.1585 47.5607 49.4398C47.842 49.7211 48 50.1027 48 50.5005C48 50.8983 47.842 51.2798 47.5607 51.5611C47.2794 51.8425 46.8978 52.0005 46.5 52.0005H27C26.6022 52.0005 26.2206 51.8425 25.9393 51.5611C25.658 51.2798 25.5 50.8983 25.5 50.5005C25.5 50.1027 25.658 49.7211 25.9393 49.4398C26.2206 49.1585 26.6022 49.0005 27 49.0005H30.744C28.7061 47.9122 27.0022 46.2907 25.8144 44.3092C24.6266 42.3277 23.9994 40.0607 24 37.7505V31.0005C24 30.2048 24.3161 29.4418 24.8787 28.8792C25.4413 28.3166 26.2044 28.0005 27 28.0005H46.5ZM49.5 37.128V37.7505C49.5 39.0525 49.305 40.3095 48.942 41.493C49.4366 41.451 49.9035 41.2467 50.2698 40.9118C50.6362 40.5768 50.8816 40.1302 50.9677 39.6413C51.0538 39.1524 50.9758 38.6488 50.7459 38.2089C50.516 37.769 50.147 37.4174 49.6965 37.209L49.5 37.128Z" fill="#6C5CE7"/>
</svg>
