<svg width="100%" height="100%" viewBox="0 0 75 100" fill="none" xmlns="http://www.w3.org/2000/svg">
<path d="M37.167 91.3337L36.0537 92.3396C36.3381 92.6544 36.7428 92.8337 37.167 92.8337C37.5912 92.8336 37.9959 92.6544 38.2803 92.3396L37.167 91.3337ZM37.167 91.3337L38.2803 92.3386L38.2822 92.3376C38.2833 92.3364 38.2841 92.334 38.2861 92.3318C38.2901 92.3274 38.2963 92.3215 38.3037 92.3132C38.3186 92.2966 38.3406 92.2719 38.3691 92.24C38.4262 92.1762 38.5095 92.0817 38.6182 91.9587C38.8356 91.7125 39.1537 91.3503 39.5566 90.8826C40.3625 89.9472 41.5114 88.5893 42.8887 86.8923C45.6424 83.4994 49.3161 78.7426 52.9932 73.2927C56.6673 67.8471 60.3628 61.6815 63.1445 55.4724C65.9173 49.2831 67.8329 42.9399 67.833 37.1677C67.833 29.0346 64.6025 21.2342 58.8516 15.4832C53.1005 9.73212 45.3002 6.50082 37.167 6.50073C29.0337 6.50073 21.2335 9.73204 15.4824 15.4832C9.73131 21.2343 6.5 29.0344 6.5 37.1677C6.50007 42.9398 8.41571 49.2831 11.1885 55.4724C13.9701 61.6815 17.6657 67.8471 21.3398 73.2927C25.0169 78.7426 28.6906 83.4994 31.4443 86.8923C32.8218 88.5896 33.9714 89.9471 34.7773 90.8826C35.1802 91.3502 35.4974 91.7125 35.7148 91.9587C35.8236 92.0819 35.9078 92.1762 35.9648 92.24C35.9933 92.2718 36.0144 92.2966 36.0293 92.3132C36.0367 92.3214 36.0429 92.3274 36.0469 92.3318C36.0489 92.334 36.0506 92.3364 36.0518 92.3376L36.0527 92.3386L37.167 91.3337Z" fill="#6C5CE7" stroke="#6C5CE7" stroke-width="3" stroke-linejoin="round"/>
<path d="M46.5 28.0007C47.2956 28.0007 48.0587 28.3168 48.6213 28.8794C49.1839 29.442 49.5 30.2051 49.5 31.0007V34.0532C50.8157 34.2407 52.0113 34.9201 52.8457 35.9545C53.6801 36.9888 54.0911 38.3011 53.996 39.6267C53.9008 40.9522 53.3065 42.1923 52.3329 43.0969C51.3593 44.0014 50.0789 44.5031 48.75 44.5007H47.568C46.3838 46.3946 44.7249 47.9459 42.756 49.0007H46.5C46.8978 49.0007 47.2794 49.1588 47.5607 49.4401C47.842 49.7214 48 50.1029 48 50.5007C48 50.8986 47.842 51.2801 47.5607 51.5614C47.2794 51.8427 46.8978 52.0007 46.5 52.0007H27C26.6022 52.0007 26.2206 51.8427 25.9393 51.5614C25.658 51.2801 25.5 50.8986 25.5 50.5007C25.5 50.1029 25.658 49.7214 25.9393 49.4401C26.2206 49.1588 26.6022 49.0007 27 49.0007H30.744C28.7061 47.9125 27.0022 46.291 25.8144 44.3095C24.6266 42.328 23.9994 40.061 24 37.7507V31.0007C24 30.2051 24.3161 29.442 24.8787 28.8794C25.4413 28.3168 26.2044 28.0007 27 28.0007H46.5ZM49.5 37.1282V37.7507C49.5 39.0527 49.305 40.3097 48.942 41.4932C49.4366 41.4513 49.9035 41.2469 50.2698 40.912C50.6362 40.5771 50.8816 40.1304 50.9677 39.6416C51.0538 39.1527 50.9758 38.6491 50.7459 38.2091C50.516 37.7692 50.147 37.4177 49.6965 37.2092L49.5 37.1282Z" fill="white"/>
</svg>
