<svg width="100%" height="100%" viewBox="0 0 75 100" fill="none" xmlns="http://www.w3.org/2000/svg">
<path d="M37.167 91.334L36.0537 92.3398C36.3381 92.6546 36.7428 92.834 37.167 92.834C37.5912 92.8339 37.9959 92.6546 38.2803 92.3398L37.167 91.334ZM37.167 91.334L38.2803 92.3389L38.2822 92.3379C38.2833 92.3367 38.2841 92.3342 38.2861 92.332C38.2901 92.3276 38.2963 92.3217 38.3037 92.3135C38.3186 92.2969 38.3406 92.2722 38.3691 92.2402C38.4262 92.1764 38.5095 92.082 38.6182 91.959C38.8356 91.7128 39.1537 91.3506 39.5566 90.8828C40.3625 89.9474 41.5114 88.5896 42.8887 86.8926C45.6424 83.4996 49.3161 78.7428 52.9932 73.293C56.6673 67.8473 60.3628 61.6818 63.1445 55.4727C65.9173 49.2833 67.8329 42.9401 67.833 37.168C67.833 29.0348 64.6025 21.2345 58.8516 15.4834C53.1005 9.73236 45.3002 6.50106 37.167 6.50098C29.0337 6.50098 21.2335 9.73228 15.4824 15.4834C9.73131 21.2345 6.5 29.0347 6.5 37.168C6.50007 42.9401 8.41571 49.2834 11.1885 55.4727C13.9701 61.6817 17.6657 67.8474 21.3398 73.293C25.0169 78.7429 28.6906 83.4996 31.4443 86.8926C32.8218 88.5898 33.9714 89.9474 34.7773 90.8828C35.1802 91.3505 35.4974 91.7128 35.7148 91.959C35.8236 92.0821 35.9078 92.1764 35.9648 92.2402C35.9933 92.272 36.0144 92.2969 36.0293 92.3135C36.0367 92.3217 36.0429 92.3276 36.0469 92.332C36.0489 92.3342 36.0506 92.3367 36.0518 92.3379L36.0527 92.3389L37.167 91.334Z" fill="#6C5CE7" stroke="#6C5CE7" stroke-width="3" stroke-linejoin="round"/>
<path d="M34.8771 30.7617H38.8729V26.7659H34.8771V30.7617ZM36.875 40.5781C34.9172 40.5781 33.0238 40.2397 31.1948 39.5628C29.3682 38.8859 27.6158 38.0254 25.9375 36.9815V33.7057C25.9375 32.8964 26.2255 32.2037 26.8016 31.6276C27.3776 31.0516 28.0715 30.7629 28.8833 30.7617H33.0542V26.3448C33.0542 25.9681 33.1939 25.6399 33.4734 25.3604C33.753 25.0809 34.0805 24.9412 34.456 24.9412H39.294C39.6707 24.9412 39.9989 25.0809 40.2784 25.3604C40.5579 25.6399 40.6977 25.9681 40.6977 26.3448V30.7617H44.8685C45.6779 30.7617 46.3706 31.0504 46.9466 31.6276C47.5227 32.2049 47.8113 32.8976 47.8125 33.7057V36.9815C46.1354 38.0267 44.383 38.8871 42.5552 39.5628C40.7274 40.2397 38.834 40.5781 36.875 40.5781ZM28.8833 55.3711V54.4597C28.0727 54.4597 27.3794 54.171 26.8034 53.5938C26.2273 53.0165 25.9387 52.3244 25.9375 51.5175V39.1216C27.4991 40.0136 29.1136 40.7489 30.781 41.3274C32.4483 41.9034 34.1759 42.2546 35.9635 42.381V43.3125C35.9635 43.5714 36.051 43.7883 36.226 43.9633C36.401 44.1383 36.618 44.2252 36.8768 44.224C37.1357 44.2228 37.352 44.1359 37.5258 43.9633C37.6996 43.7907 37.7865 43.5738 37.7865 43.3125V42.381C39.5741 42.2546 41.3016 41.9028 42.969 41.3255C44.6376 40.7483 46.2521 40.013 47.8125 39.1198V51.5156C47.8125 52.3262 47.5239 53.0195 46.9466 53.5956C46.3694 54.1716 45.6766 54.4603 44.8685 54.4615V55.3729C44.8685 55.6318 44.7798 55.8481 44.6023 56.0219C44.4249 56.1957 44.2062 56.2832 43.9461 56.2844C43.7006 56.2844 43.5086 56.1872 43.3701 55.9927C43.2303 55.7971 43.1215 55.5905 43.0437 55.3729V54.4597H30.7063V55.3711C30.7063 55.63 30.6175 55.8463 30.4401 56.0201C30.2639 56.1951 30.0451 56.2826 29.7839 56.2826C29.5384 56.2826 29.3457 56.1853 29.206 55.9909C29.0674 55.7952 28.9599 55.5886 28.8833 55.3711Z" fill="white"/>
</svg>
