<svg width="100%" height="100%" viewBox="0 0 100 101" fill="none" xmlns="http://www.w3.org/2000/svg">
<path d="M41.4059 88.0417L31.0934 68.875L11.9268 58.5625L19.3226 51.2708L34.4268 53.875L45.0518 43.25L12.0309 29.1875L20.7809 20.2292L60.8851 27.3125L73.8018 14.3958C75.399 12.7986 77.3781 12 79.7393 12C82.1004 12 84.0795 12.7986 85.6768 14.3958C87.274 15.9931 88.0726 17.9542 88.0726 20.2792C88.0726 22.6042 87.274 24.5667 85.6768 26.1667L72.6559 39.1875L79.7393 79.1875L70.8851 88.0417L56.7184 55.0208L46.0934 65.6458L48.8018 80.6458L41.4059 88.0417Z" fill="currentColor"/>
</svg>
