<svg width="100%" height="100%" viewBox="0 0 75 100" fill="none" xmlns="http://www.w3.org/2000/svg">
<path d="M37.167 91.333L36.0537 92.3389C36.3381 92.6536 36.7428 92.833 37.167 92.833C37.5912 92.8329 37.9959 92.6537 38.2803 92.3389L37.167 91.333ZM37.167 91.333L38.2803 92.3379L38.2822 92.3369C38.2833 92.3357 38.2841 92.3333 38.2861 92.3311C38.2901 92.3267 38.2963 92.3208 38.3037 92.3125C38.3186 92.2959 38.3406 92.2712 38.3691 92.2393C38.4262 92.1754 38.5095 92.081 38.6182 91.958C38.8356 91.7118 39.1537 91.3496 39.5566 90.8818C40.3625 89.9464 41.5114 88.5886 42.8887 86.8916C45.6424 83.4987 49.3161 78.7419 52.9932 73.292C56.6673 67.8464 60.3628 61.6808 63.1445 55.4717C65.9173 49.2824 67.8329 42.9391 67.833 37.167C67.833 29.0338 64.6025 21.2335 58.8516 15.4824C53.1005 9.73138 45.3002 6.50009 37.167 6.5C29.0337 6.5 21.2335 9.73131 15.4824 15.4824C9.73131 21.2335 6.5 29.0337 6.5 37.167C6.50007 42.9391 8.41571 49.2824 11.1885 55.4717C13.9701 61.6808 17.6657 67.8464 21.3398 73.292C25.0169 78.7419 28.6906 83.4986 31.4443 86.8916C32.8218 88.5889 33.9714 89.9464 34.7773 90.8818C35.1802 91.3495 35.4974 91.7118 35.7148 91.958C35.8236 92.0811 35.9078 92.1754 35.9648 92.2393C35.9933 92.2711 36.0144 92.2959 36.0293 92.3125C36.0367 92.3207 36.0429 92.3266 36.0469 92.3311C36.0489 92.3333 36.0506 92.3357 36.0518 92.3369L36.0527 92.3379L37.167 91.333Z" fill="white" stroke="#6C5CE7" stroke-width="3" stroke-linejoin="round"/>
<path d="M26.4865 23.8022C26.227 23.8018 25.976 23.8947 25.7793 24.0639C25.5826 24.2332 25.4533 24.4674 25.415 24.7241C25.3052 25.4672 24.4375 31.379 24.4375 33.9924C24.4375 35.7137 25.179 37.2642 26.3564 38.338C26.9012 38.8342 27.181 39.3359 27.181 39.7819C27.181 39.8172 27.1802 39.8462 27.1771 39.8775C27.1034 40.7978 26.3971 49.6506 26.3971 51.2371C26.3971 52.2766 26.8101 53.2735 27.5451 54.0085C28.2801 54.7435 29.277 55.1564 30.3164 55.1564C31.3559 55.1564 32.3527 54.7435 33.0877 54.0085C33.8228 53.2735 34.2357 52.2766 34.2357 51.2371C34.2357 49.6506 33.5294 40.7978 33.4557 39.8775L33.4518 39.7819C33.4518 39.3359 33.7317 38.8342 34.2764 38.338C34.8818 37.7877 35.3652 37.1167 35.6957 36.3682C36.0262 35.6198 36.1964 34.8105 36.1953 33.9924C36.1953 31.379 35.3276 25.464 35.2178 24.7241C35.1795 24.4676 35.0503 24.2334 34.8538 24.0642C34.6572 23.895 34.4064 23.802 34.1471 23.8022H34.133C33.509 23.8022 33.0615 24.3157 33.0615 24.8761V33.1144C33.0615 33.2297 33.0388 33.3439 32.9946 33.4504C32.9505 33.5569 32.8859 33.6537 32.8043 33.7352C32.7228 33.8167 32.626 33.8814 32.5195 33.9255C32.413 33.9696 32.2988 33.9924 32.1835 33.9924C32.0683 33.9924 31.9541 33.9696 31.8476 33.9255C31.7411 33.8814 31.6443 33.8167 31.5628 33.7352C31.4812 33.6537 31.4166 33.5569 31.3725 33.4504C31.3283 33.3439 31.3056 33.2297 31.3056 33.1144V24.8362C31.31 24.7018 31.2869 24.568 31.2379 24.4429C31.1888 24.3178 31.1149 24.204 31.0204 24.1084C30.926 24.0128 30.813 23.9374 30.6885 23.8869C30.564 23.8363 30.4305 23.8116 30.2961 23.8144C30.1618 23.8171 30.0294 23.8471 29.907 23.9027C29.7846 23.9582 29.6748 24.0381 29.5843 24.1374C29.4938 24.2368 29.4245 24.3535 29.3805 24.4805C29.3366 24.6075 29.319 24.7421 29.3287 24.8761V33.1144C29.3287 33.3473 29.2363 33.5706 29.0716 33.7352C28.907 33.8999 28.6837 33.9924 28.4508 33.9924C28.218 33.9924 27.9947 33.8999 27.8301 33.7352C27.6654 33.5706 27.5729 33.3473 27.5729 33.1144V24.8761C27.5729 24.5917 27.4601 24.3189 27.2592 24.1176C27.0583 23.9163 26.7858 23.8029 26.5014 23.8022H26.4865ZM42.3956 39.4793L42.3462 40.1942C42.2725 41.2618 42.1738 42.7025 42.0766 44.195C41.8822 47.1533 41.6823 50.3835 41.6823 51.2371C41.6823 52.2766 42.0952 53.2735 42.8302 54.0085C43.5652 54.7435 44.5621 55.1564 45.6016 55.1564C46.641 55.1564 47.6379 54.7435 48.3729 54.0085C49.1079 53.2735 49.5208 52.2766 49.5208 51.2371C49.5208 50.2895 49.2739 46.6955 49.0599 43.593L49.0529 43.4911C48.882 41.0047 48.737 38.8836 48.737 38.4995V24.7821C48.737 24.2412 48.298 23.8022 47.7572 23.8022H47.3652C42.4951 23.8022 38.5469 27.7505 38.5469 32.6206V36.9318C38.5469 37.6075 38.8153 38.2554 39.293 38.7332C39.7708 39.2109 40.4188 39.4793 41.0944 39.4793H42.3956Z" fill="#6C5CE7"/>
</svg>
