<svg width="72" height="101" viewBox="0 0 72 101" fill="none" xmlns="http://www.w3.org/2000/svg">
<g clip-path="url(#clip0_103_2431)">
<g clip-path="url(#clip1_103_2431)">
<path fill-rule="evenodd" clip-rule="evenodd" d="M52.9156 45.626C54.0861 46.7979 54.7435 48.3864 54.7435 50.0427C54.7435 51.6989 54.0861 53.2875 52.9156 54.4594L29.349 78.0344C28.1765 79.2063 26.5865 79.8644 24.9287 79.864C23.271 79.8637 21.6813 79.2047 20.5094 78.0323C19.3375 76.8598 18.6793 75.2698 18.6797 73.612C18.6801 71.9543 19.339 70.3646 20.5115 69.1927L39.6615 50.0427L20.5115 30.8927C19.3724 29.7145 18.7417 28.136 18.7552 26.4972C18.7686 24.8585 19.4252 23.2906 20.5834 22.1313C21.7417 20.9719 23.309 20.3139 24.9477 20.2988C26.5864 20.2838 28.1655 20.9131 29.3448 22.051L52.9198 45.6218L52.9156 45.626Z" fill="#999999"/>
</g>
</g>
<defs>
<clipPath id="clip0_103_2431">
<rect width="71.4286" height="100" fill="white" transform="translate(0.286133 0.0419922)"/>
</clipPath>
<clipPath id="clip1_103_2431">
<rect width="100" height="100" fill="white" transform="translate(-14 0.0419922)"/>
</clipPath>
</defs>
</svg>
