<svg width="100%" height="100%" viewBox="0 0 75 100" fill="none" xmlns="http://www.w3.org/2000/svg">
<path d="M37.167 91.335L36.0537 92.3408C36.3381 92.6556 36.7428 92.835 37.167 92.835C37.5912 92.8349 37.9959 92.6556 38.2803 92.3408L37.167 91.335ZM37.167 91.335L38.2803 92.3398L38.2822 92.3389C38.2833 92.3376 38.2841 92.3352 38.2861 92.333C38.2901 92.3286 38.2963 92.3227 38.3037 92.3145C38.3186 92.2978 38.3406 92.2731 38.3691 92.2412C38.4262 92.1774 38.5095 92.0829 38.6182 91.96C38.8356 91.7137 39.1537 91.3515 39.5566 90.8838C40.3625 89.9484 41.5114 88.5905 42.8887 86.8936C45.6424 83.5006 49.3161 78.7438 52.9932 73.2939C56.6673 67.8483 60.3628 61.6828 63.1445 55.4736C65.9173 49.2843 67.8329 42.9411 67.833 37.1689C67.833 29.0358 64.6025 21.2355 58.8516 15.4844C53.1005 9.73334 45.3002 6.50204 37.167 6.50195C29.0337 6.50195 21.2335 9.73326 15.4824 15.4844C9.73131 21.2355 6.5 29.0356 6.5 37.1689C6.50007 42.941 8.41571 49.2844 11.1885 55.4736C13.9701 61.6827 17.6657 67.8483 21.3398 73.2939C25.0169 78.7438 28.6906 83.5006 31.4443 86.8936C32.8218 88.5908 33.9714 89.9483 34.7773 90.8838C35.1802 91.3514 35.4974 91.7137 35.7148 91.96C35.8236 92.0831 35.9078 92.1774 35.9648 92.2412C35.9933 92.273 36.0144 92.2979 36.0293 92.3145C36.0367 92.3226 36.0429 92.3286 36.0469 92.333C36.0489 92.3352 36.0506 92.3376 36.0518 92.3389L36.0527 92.3398L37.167 91.335Z" fill="white" stroke="#6C5CE7" stroke-width="3" stroke-linejoin="round"/>
<path fill-rule="evenodd" clip-rule="evenodd" d="M34.8138 21.5833C32.3854 21.5835 29.9922 22.1644 27.8339 23.2776C25.6757 24.3908 23.8149 26.004 22.4069 27.9826C20.9989 29.9612 20.0845 32.2479 19.74 34.6517C19.3955 37.0556 19.6308 39.507 20.4263 41.8015C21.2219 44.0959 22.5546 46.1668 24.3133 47.8414C26.072 49.516 28.2056 50.7458 30.5362 51.4281C32.8668 52.1104 35.3268 52.2255 37.711 51.7637C40.0951 51.3019 42.3342 50.2767 44.2416 48.7736L50.7847 55.3168C51.1226 55.6431 51.5752 55.8237 52.045 55.8196C52.5148 55.8155 52.9641 55.6271 53.2963 55.2949C53.6285 54.9627 53.8169 54.5134 53.821 54.0436C53.8251 53.5738 53.6445 53.1212 53.3181 52.7833L46.775 46.2402C48.5451 43.9945 49.6473 41.2959 49.9554 38.4531C50.2634 35.6103 49.7649 32.7382 48.5169 30.1655C47.2688 27.5928 45.3217 25.4234 42.8983 23.9057C40.475 22.3879 37.6732 21.5831 34.8138 21.5833ZM23.168 36.8124C23.168 33.7238 24.3949 30.7616 26.579 28.5776C28.763 26.3936 31.7251 25.1666 34.8138 25.1666C37.9025 25.1666 40.8646 26.3936 43.0487 28.5776C45.2327 30.7616 46.4596 33.7238 46.4596 36.8124C46.4596 39.9011 45.2327 42.8633 43.0487 45.0473C40.8646 47.2313 37.9025 48.4583 34.8138 48.4583C31.7251 48.4583 28.763 47.2313 26.579 45.0473C24.3949 42.8633 23.168 39.9011 23.168 36.8124Z" fill="#6C5CE7"/>
</svg>
